<svg fill="#fff" height="250px" id="Layer_1" data-name="Layer 1" xmlns="http://www.w3.org/2000/svg"
    viewBox="0 0 1583.13 350.6">
    <defs>
        <!-- <style>.cls-1{isolation:isolate;}.cls-2{fill:#231f20;}</style> -->
    </defs>
    <g class="cls-1">
        <path class="cls-2"
            d="M1569.68,315.3a87.56,87.56,0,0,1,3.79,14.4c.51,3.53-.17,6.18-2,7.95s-5.14,2.86-9.85,3.28-11.2.64-19.45.64q-12.87,0-20.07-.38a49.94,49.94,0,0,1-11-1.52,10,10,0,0,1-5.3-3.16,17.1,17.1,0,0,1-2.53-5.3l-22-65.67H1358.54l-20.71,63.9a20.14,20.14,0,0,1-2.65,5.94,10.87,10.87,0,0,1-5.3,3.79,39.09,39.09,0,0,1-10.36,1.89q-6.69.51-17.55.51a169.07,169.07,0,0,1-18.18-.76q-6.57-.76-9.1-3.66t-1.76-8.21a81.81,81.81,0,0,1,3.78-14.15L1377.49,24.86a25.42,25.42,0,0,1,3.53-6.95,12.53,12.53,0,0,1,6.44-4,51.52,51.52,0,0,1,12.25-1.77q7.83-.37,20.71-.38,14.89,0,23.74.38a64.16,64.16,0,0,1,13.77,1.77q4.92,1.4,7.07,4.17a24.49,24.49,0,0,1,3.66,7.57Z" />
    </g>
    <g class="cls-1">
        <path class="cls-2"
            d="M1242.12,249.13a176,176,0,0,1-4.17,40q-4.17,17.8-14.14,30.31a63,63,0,0,1-26.14,19.06q-16.17,6.57-39.91,6.57a99.06,99.06,0,0,1-15-1.14,108.45,108.45,0,0,1-13.64-2.9,81.72,81.72,0,0,1-10.73-3.79q-4.56-2-6.07-3.66a18.38,18.38,0,0,1-2.52-3.41,19.47,19.47,0,0,1-1.77-4.67,37.72,37.72,0,0,1-1-7.2q-.26-4.29-.25-10.86,0-8.58.38-14.52a52.09,52.09,0,0,1,1.26-9.35,9.17,9.17,0,0,1,2.53-4.8,6.23,6.23,0,0,1,4.16-1.38,11.44,11.44,0,0,1,5.31,1.64q3,1.63,6.82,3.41a78.2,78.2,0,0,0,8.83,3.41,38.7,38.7,0,0,0,11.88,1.64,34.64,34.64,0,0,0,12-1.9,18.22,18.22,0,0,0,8.59-6.56,33.8,33.8,0,0,0,5.18-12.5,95.19,95.19,0,0,0,1.76-20.21V21.83a6.54,6.54,0,0,1,1.64-4.42,12.11,12.11,0,0,1,5.31-3.16,46.46,46.46,0,0,1,10.23-1.89q6.56-.63,16.16-.64t15.91.64a50.8,50.8,0,0,1,10.23,1.89,12.19,12.19,0,0,1,5.56,3.16,6.54,6.54,0,0,1,1.64,4.42Z" />
    </g>
    <g class="cls-1">
        <path class="cls-2"
            d="M1090.44,172.86q0,40.66-10.1,72.73T1050.28,300a129.23,129.23,0,0,1-49.37,34.09q-29.43,11.75-68.07,11.75-38.13,0-66.55-10t-47.35-30.43Q800,285,790.53,253.42t-9.48-74.75q0-39.66,10.11-71.35T821.21,53.4q19.95-22.23,49.38-34.1T938.9,7.43q37.13,0,65.54,9.85t47.48,30.31q19.07,20.46,28.79,51.65T1090.44,172.86Z" />
    </g>
    <g class="cls-1">
        <path class="cls-2"
            d="M273.4,218.32q0,30.06-8.84,53.79a105.52,105.52,0,0,1-26,40.16q-17.18,16.41-42.43,25T138,345.86q-30.81,0-55.31-7.7T41.3,314.79q-16.92-15.65-25.89-39t-9-54.68V22.33A7.36,7.36,0,0,1,8,17.79c1-1.35,2.82-2.44,5.43-3.29a56.65,56.65,0,0,1,10.23-2,141.58,141.58,0,0,1,16.17-.76,138.82,138.82,0,0,1,15.91.76,53.73,53.73,0,0,1,10.1,2,11.63,11.63,0,0,1,5.43,3.29,7,7,0,0,1,1.64,4.54v193q0,19.44,4.8,33.71t13.76,23.62a56.94,56.94,0,0,0,21.47,14,79.14,79.14,0,0,0,27.91,4.68,77,77,0,0,0,28-4.8,55.76,55.76,0,0,0,21-14,63,63,0,0,0,13.25-22.73,93.46,93.46,0,0,0,4.68-30.69V22.33a7.36,7.36,0,0,1,1.51-4.54,10.69,10.69,0,0,1,5.31-3.29,53.55,53.55,0,0,1,10.23-2,142,142,0,0,1,16-.76,135.45,135.45,0,0,1,15.79.76,53.26,53.26,0,0,1,10,2,10.69,10.69,0,0,1,5.31,3.29,7.36,7.36,0,0,1,1.51,4.54Z" />
        <path class="cls-2"
            d="M725.23,331a7.86,7.86,0,0,1-1.39,4.54,9.77,9.77,0,0,1-5.05,3.29,50.12,50.12,0,0,1-9.72,2,129.34,129.34,0,0,1-15.41.76,126.59,126.59,0,0,1-15.15-.76,47.4,47.4,0,0,1-9.6-2,10.51,10.51,0,0,1-5-3.29,7.37,7.37,0,0,1-1.52-4.54V65h-.5l-94.71,265.7a12.19,12.19,0,0,1-3.29,5.42,15.83,15.83,0,0,1-6.18,3.41,42.19,42.19,0,0,1-10,1.65q-6.06.38-14.65.38a144.6,144.6,0,0,1-14.65-.64,43.75,43.75,0,0,1-10-2,18.5,18.5,0,0,1-6.19-3.41,9.79,9.79,0,0,1-3-4.79L407.76,65h-.5V331a7.86,7.86,0,0,1-1.39,4.54c-.93,1.35-2.65,2.45-5.18,3.29a53.08,53.08,0,0,1-9.72,2,152.68,152.68,0,0,1-30.43,0,50.08,50.08,0,0,1-9.73-2,9.73,9.73,0,0,1-5.05-3.29,7.78,7.78,0,0,1-1.39-4.54V39.76q0-12.88,6.82-19.7t18.19-6.82h43.43a91.45,91.45,0,0,1,20,1.89,38.74,38.74,0,0,1,14.39,6.32,35.89,35.89,0,0,1,10.11,11.61,83.65,83.65,0,0,1,7.07,17.81l70.71,194.72h1L609.31,51.38a102.27,102.27,0,0,1,7.19-17.94,41.67,41.67,0,0,1,9.1-11.87,30.07,30.07,0,0,1,12.24-6.44,64,64,0,0,1,16.42-1.89H699A34.84,34.84,0,0,1,710.71,15a20.08,20.08,0,0,1,8.08,5.17,22.84,22.84,0,0,1,4.8,8.34,35.6,35.6,0,0,1,1.64,11.24Z" />
    </g>
</svg>