<?xml version="1.0" encoding="utf-8"?>
<!-- Generator: Adobe Illustrator 26.1.0, SVG Export Plug-In . SVG Version: 6.00 Build 0)  -->
<svg version="1.1" id="Layer_1" xmlns="http://www.w3.org/2000/svg" xmlns:xlink="http://www.w3.org/1999/xlink" x="0px" y="0px"
	 viewBox="0 0 471.9 243.4" style="enable-background:new 0 0 471.9 243.4;" xml:space="preserve">
<style type="text/css">
	.st0{fill:#1E2746;}
</style>
<path class="st0" d="M403.4,241.3c-0.2-5.4-0.5-9.2-0.6-13c0-25.5,0-50.9,0-76.4c0-11.3-0.2-11.4-14.1-9.8v98.4h-25.5
	c-0.2-4-0.6-7.8-0.6-11.5c0-51.6,0.5-103.3-0.3-154.9c-0.3-21.7,13.1-32.5,31.8-32c25.7,0.8,34.8,9,34.8,34.4v138.2h14.6
	c0.2-3.8,0.6-7.2,0.6-10.6c0-54.5,0-109,0-163.4c0-12.3-0.1-12.4-12.3-12.4c-130.4,0-260.7,0-391.1,0c-12.2,0-12.3,0-12.3,12.2
	c0,55.9,0,111.8,0,167.7c0,5.4-1.7,12.9,6.6,13.2c8.8,0.3,7.9-7.3,7.9-13.2c0.1-50.9,0.1-101.9,0-152.8V42.4h25.1
	c0.3,3.7,0.7,6.7,0.7,9.8c0,52.7-0.1,105.4,0.1,158.1c0,10.1-2.5,18.9-10.6,25.4c-10,8-36.6,7.5-46.3-0.8
	c-6.3-5.4-9.1-12.1-9.1-20.5C3,147.1,3,79.9,2.8,12.7c0-8.1,2.7-10.2,10.5-10.1C60.1,2.9,107,2.7,153.9,2.7h302.6
	c13.3,0,13.3,0,13.3,13.4c0,71.1,0,142.2,0,213.3c0,11.8-0.1,11.8-11.8,11.9C440.4,241.4,422.6,241.3,403.4,241.3z M402.3,121.6
	c0-18.1,0.1-35,0-51.9c0-4.3-2-8.5-6.8-7.2c-2.8,0.7-6.4,4.7-6.6,7.5c-0.8,10.9-0.4,21.9-0.4,32.9c0,6.2,0,12.4,0,18.8L402.3,121.6z
	"/>
<path class="st0" d="M192.1,41.7v198.4h-24.7v-80.6l-2-0.2c-4.4,27-8.8,53.9-13.2,81.2H127c-4.5-27.7-8.9-55.1-13.3-82.5l-1.7,0.1
	v82.1H86.9V42.7h24.8L138,167.1l2.8,0.1c1.6-6.2,3.4-12.4,4.6-18.7c6.6-32.1,13.4-64.2,19.4-96.5c1.6-8.5,5.2-11.4,13.4-10.4
	C182.3,42.1,186.6,41.7,192.1,41.7z"/>
<path class="st0" d="M207.1,142.3c0-23.3-0.1-46.7,0-70c0.1-19.7,9.7-29.1,29.5-29.2c2.8,0,5.7,0,8.5,0
	c17.4,0.2,27.7,10.3,27.9,27.8c0.2,21.6,0.1,43.2,0.1,64.7c0,25.5,0.1,50.9,0,76.4c-0.1,19.9-10.2,29.9-30.2,30
	c-3.2,0-6.4,0.1-9.6,0c-15.6-0.8-25.8-10.8-26-26.4C207,191.1,207.2,166.7,207.1,142.3z M247.8,143.1c0-23.6,0-47.3,0-70.9
	c0-5.4-0.8-10.1-7.8-10.1s-7.8,4.7-8,10c-0.1,1.4-0.1,2.8-0.1,4.2c0,44.1,0,88.2,0,132.3c0,2.8-0.5,6,0.6,8.3
	c1.3,2.5,3.9,5.2,6.5,5.9c2,0.6,5.9-1.1,7.1-2.9c1.5-2.4,1.6-6,1.6-9.1C247.9,188.3,247.8,165.7,247.8,143.1L247.8,143.1z"/>
<path class="st0" d="M283.7,175.9h25.9c0,10.8,0,21,0,31.1c0,2.8-0.7,6,0.4,8.4s4.1,6.1,5.9,5.8c2.7-0.3,5.5-3.2,7.4-5.6
	c1.1-1.4,0.7-4.1,0.7-6.2c0-44.2,0-88.4,0-132.7c0-2.4-0.5-4.9-0.8-8.1l-17-2V42.5h42.2c0.5,2.7,0.8,5.4,1,8.2
	c0.3,53,0.7,106.1,0.4,159.2c0,7-2,15.2-6,20.7c-3.7,5-11.3,9.2-17.6,9.9c-28.9,3.2-44.6-3.3-42.5-38.2
	C284.1,193.8,283.7,185.4,283.7,175.9z"/>
</svg>
